<mxfile host="app.diagrams.net" modified="2024-04-01T10:11:36.183Z" agent="Mozilla/5.0 (Macintosh; Intel Mac OS X 10_15_7) AppleWebKit/537.36 (KHTML, like Gecko) Chrome/123.0.0.0 Safari/537.36" etag="NFgkCSvwJVREP5FGWjtr" version="24.2.0" type="github">
  <diagram name="Page-1" id="IQmFI2vmxPtZUQ9oKcdF">
    <mxGraphModel dx="1423" dy="1379" grid="1" gridSize="10" guides="1" tooltips="1" connect="1" arrows="1" fold="1" page="1" pageScale="1" pageWidth="850" pageHeight="1100" math="0" shadow="0">
      <root>
        <mxCell id="0" />
        <mxCell id="1" parent="0" />
        <mxCell id="CiypFYjO7ikSyQDcbNHJ-6" style="edgeStyle=orthogonalEdgeStyle;rounded=0;orthogonalLoop=1;jettySize=auto;html=1;exitX=0;exitY=0.75;exitDx=0;exitDy=0;entryX=1;entryY=0.5;entryDx=0;entryDy=0;" edge="1" parent="1" source="-PxYoWHsA5pN7jv7AzU3-11" target="-PxYoWHsA5pN7jv7AzU3-14">
          <mxGeometry relative="1" as="geometry" />
        </mxCell>
        <mxCell id="-PxYoWHsA5pN7jv7AzU3-11" value="" style="rounded=1;whiteSpace=wrap;html=1;" parent="1" vertex="1">
          <mxGeometry x="590" y="140" width="510" height="510" as="geometry" />
        </mxCell>
        <mxCell id="-PxYoWHsA5pN7jv7AzU3-28" style="edgeStyle=orthogonalEdgeStyle;rounded=0;orthogonalLoop=1;jettySize=auto;html=1;exitX=1;exitY=0.5;exitDx=0;exitDy=0;entryX=0;entryY=0.5;entryDx=0;entryDy=0;" parent="1" source="-PxYoWHsA5pN7jv7AzU3-2" target="-PxYoWHsA5pN7jv7AzU3-3" edge="1">
          <mxGeometry relative="1" as="geometry" />
        </mxCell>
        <mxCell id="-PxYoWHsA5pN7jv7AzU3-2" value="ProcessEntityUpdateRpc&lt;br&gt;{id,type}-partial" style="rounded=0;whiteSpace=wrap;html=1;fillColor=#fff2cc;strokeColor=#d6b656;" parent="1" vertex="1">
          <mxGeometry x="640" y="200" width="180" height="60" as="geometry" />
        </mxCell>
        <mxCell id="-PxYoWHsA5pN7jv7AzU3-13" style="edgeStyle=orthogonalEdgeStyle;rounded=0;orthogonalLoop=1;jettySize=auto;html=1;exitX=1;exitY=0.5;exitDx=0;exitDy=0;entryX=0;entryY=0.5;entryDx=0;entryDy=0;" parent="1" source="-PxYoWHsA5pN7jv7AzU3-3" target="-PxYoWHsA5pN7jv7AzU3-10" edge="1">
          <mxGeometry relative="1" as="geometry" />
        </mxCell>
        <mxCell id="-PxYoWHsA5pN7jv7AzU3-3" value="Hydrators" style="rounded=0;whiteSpace=wrap;html=1;" parent="1" vertex="1">
          <mxGeometry x="950" y="290" width="120" height="60" as="geometry" />
        </mxCell>
        <mxCell id="-PxYoWHsA5pN7jv7AzU3-26" style="edgeStyle=orthogonalEdgeStyle;rounded=0;orthogonalLoop=1;jettySize=auto;html=1;exitX=1;exitY=0.5;exitDx=0;exitDy=0;entryX=0;entryY=0.5;entryDx=0;entryDy=0;" parent="1" source="-PxYoWHsA5pN7jv7AzU3-7" target="-PxYoWHsA5pN7jv7AzU3-3" edge="1">
          <mxGeometry relative="1" as="geometry" />
        </mxCell>
        <mxCell id="-PxYoWHsA5pN7jv7AzU3-7" value="RefreshEntityRpc&lt;br&gt;[(id,type)]-full" style="rounded=0;whiteSpace=wrap;html=1;fillColor=#fff2cc;strokeColor=#d6b656;" parent="1" vertex="1">
          <mxGeometry x="640" y="380" width="180" height="60" as="geometry" />
        </mxCell>
        <mxCell id="-PxYoWHsA5pN7jv7AzU3-8" value="BackfilIndexRpc&lt;br&gt;refresh all ids from SOT - full" style="rounded=0;whiteSpace=wrap;html=1;" parent="1" vertex="1">
          <mxGeometry x="640" y="480" width="180" height="60" as="geometry" />
        </mxCell>
        <mxCell id="-PxYoWHsA5pN7jv7AzU3-27" style="edgeStyle=orthogonalEdgeStyle;rounded=0;orthogonalLoop=1;jettySize=auto;html=1;exitX=1;exitY=0.5;exitDx=0;exitDy=0;entryX=0;entryY=0.5;entryDx=0;entryDy=0;" parent="1" source="-PxYoWHsA5pN7jv7AzU3-9" target="-PxYoWHsA5pN7jv7AzU3-3" edge="1">
          <mxGeometry relative="1" as="geometry" />
        </mxCell>
        <mxCell id="-PxYoWHsA5pN7jv7AzU3-9" value="ProcessBulkEntityUpdateRpc&lt;br&gt;[{id,type})]-partial" style="rounded=0;whiteSpace=wrap;html=1;fillColor=#fff2cc;strokeColor=#d6b656;" parent="1" vertex="1">
          <mxGeometry x="640" y="290" width="180" height="60" as="geometry" />
        </mxCell>
        <mxCell id="-PxYoWHsA5pN7jv7AzU3-10" value="ES" style="rounded=0;whiteSpace=wrap;html=1;" parent="1" vertex="1">
          <mxGeometry x="1180" y="290" width="120" height="60" as="geometry" />
        </mxCell>
        <mxCell id="CiypFYjO7ikSyQDcbNHJ-9" style="edgeStyle=orthogonalEdgeStyle;rounded=0;orthogonalLoop=1;jettySize=auto;html=1;exitX=0.5;exitY=0;exitDx=0;exitDy=0;entryX=0.5;entryY=1;entryDx=0;entryDy=0;" edge="1" parent="1" source="-PxYoWHsA5pN7jv7AzU3-14" target="CiypFYjO7ikSyQDcbNHJ-7">
          <mxGeometry relative="1" as="geometry" />
        </mxCell>
        <mxCell id="-PxYoWHsA5pN7jv7AzU3-14" value="KEQ2&lt;br&gt;stores/store-index-entity-refresh" style="shape=process;whiteSpace=wrap;html=1;backgroundOutline=1;" parent="1" vertex="1">
          <mxGeometry x="309" y="492" width="170" height="60" as="geometry" />
        </mxCell>
        <mxCell id="-PxYoWHsA5pN7jv7AzU3-16" value="&lt;b&gt;&lt;font style=&quot;font-size: 16px;&quot;&gt;store-index-ingester-grpc&lt;/font&gt;&lt;/b&gt;" style="text;html=1;strokeColor=none;fillColor=none;align=center;verticalAlign=middle;whiteSpace=wrap;rounded=0;" parent="1" vertex="1">
          <mxGeometry x="730" y="150" width="210" height="30" as="geometry" />
        </mxCell>
        <mxCell id="-PxYoWHsA5pN7jv7AzU3-24" value="TriggerRefreshRpc&lt;br&gt;refresh all ids in index - full" style="rounded=0;whiteSpace=wrap;html=1;" parent="1" vertex="1">
          <mxGeometry x="640" y="560" width="180" height="60" as="geometry" />
        </mxCell>
        <mxCell id="-PxYoWHsA5pN7jv7AzU3-47" style="edgeStyle=orthogonalEdgeStyle;rounded=0;orthogonalLoop=1;jettySize=auto;html=1;exitX=1;exitY=0.5;exitDx=0;exitDy=0;entryX=0;entryY=0.5;entryDx=0;entryDy=0;" parent="1" source="-PxYoWHsA5pN7jv7AzU3-29" target="-PxYoWHsA5pN7jv7AzU3-46" edge="1">
          <mxGeometry relative="1" as="geometry">
            <mxPoint x="140" y="280" as="targetPoint" />
          </mxGeometry>
        </mxCell>
        <mxCell id="-PxYoWHsA5pN7jv7AzU3-29" value="scs" style="rounded=1;whiteSpace=wrap;html=1;" parent="1" vertex="1">
          <mxGeometry x="58" y="250" width="120" height="60" as="geometry" />
        </mxCell>
        <mxCell id="CiypFYjO7ikSyQDcbNHJ-5" style="edgeStyle=orthogonalEdgeStyle;rounded=0;orthogonalLoop=1;jettySize=auto;html=1;exitX=1;exitY=0.5;exitDx=0;exitDy=0;entryX=0;entryY=0.5;entryDx=0;entryDy=0;" edge="1" parent="1" source="-PxYoWHsA5pN7jv7AzU3-46" target="-PxYoWHsA5pN7jv7AzU3-2">
          <mxGeometry relative="1" as="geometry" />
        </mxCell>
        <mxCell id="CiypFYjO7ikSyQDcbNHJ-8" style="edgeStyle=orthogonalEdgeStyle;rounded=0;orthogonalLoop=1;jettySize=auto;html=1;exitX=0.5;exitY=1;exitDx=0;exitDy=0;entryX=0.5;entryY=0;entryDx=0;entryDy=0;" edge="1" parent="1" source="-PxYoWHsA5pN7jv7AzU3-46" target="CiypFYjO7ikSyQDcbNHJ-7">
          <mxGeometry relative="1" as="geometry" />
        </mxCell>
        <mxCell id="-PxYoWHsA5pN7jv7AzU3-46" value="KEQ2" style="shape=process;whiteSpace=wrap;html=1;backgroundOutline=1;" parent="1" vertex="1">
          <mxGeometry x="309" y="200" width="170" height="60" as="geometry" />
        </mxCell>
        <mxCell id="CiypFYjO7ikSyQDcbNHJ-11" style="edgeStyle=orthogonalEdgeStyle;rounded=0;orthogonalLoop=1;jettySize=auto;html=1;exitX=1;exitY=0.5;exitDx=0;exitDy=0;entryX=0.5;entryY=1;entryDx=0;entryDy=0;" edge="1" parent="1" source="-PxYoWHsA5pN7jv7AzU3-50" target="-PxYoWHsA5pN7jv7AzU3-24">
          <mxGeometry relative="1" as="geometry" />
        </mxCell>
        <mxCell id="-PxYoWHsA5pN7jv7AzU3-50" value="store-index-refresh" style="rounded=1;whiteSpace=wrap;html=1;" parent="1" vertex="1">
          <mxGeometry x="284" y="670" width="220" height="70" as="geometry" />
        </mxCell>
        <mxCell id="-PxYoWHsA5pN7jv7AzU3-65" value="" style="endArrow=none;html=1;rounded=0;entryX=0;entryY=0.75;entryDx=0;entryDy=0;exitX=1;exitY=0.75;exitDx=0;exitDy=0;dashed=1;" parent="1" edge="1">
          <mxGeometry width="50" height="50" relative="1" as="geometry">
            <mxPoint x="1100" y="463" as="sourcePoint" />
            <mxPoint x="580" y="463" as="targetPoint" />
          </mxGeometry>
        </mxCell>
        <mxCell id="CiypFYjO7ikSyQDcbNHJ-2" value="Run On Pod Start&lt;br&gt;ACCOUNT/ORG/BRAND/STORE/STORELINK/PRODUCT_OFFERING" style="text;html=1;align=center;verticalAlign=middle;whiteSpace=wrap;rounded=0;" vertex="1" parent="1">
          <mxGeometry x="190" y="750" width="390" height="30" as="geometry" />
        </mxCell>
        <mxCell id="CiypFYjO7ikSyQDcbNHJ-4" style="edgeStyle=orthogonalEdgeStyle;rounded=0;orthogonalLoop=1;jettySize=auto;html=1;exitX=1;exitY=0.5;exitDx=0;exitDy=0;entryX=0;entryY=0.5;entryDx=0;entryDy=0;" edge="1" parent="1" source="CiypFYjO7ikSyQDcbNHJ-3" target="-PxYoWHsA5pN7jv7AzU3-46">
          <mxGeometry relative="1" as="geometry" />
        </mxCell>
        <mxCell id="CiypFYjO7ikSyQDcbNHJ-3" value="auth-role-management" style="rounded=1;whiteSpace=wrap;html=1;" vertex="1" parent="1">
          <mxGeometry x="58" y="160" width="120" height="60" as="geometry" />
        </mxCell>
        <mxCell id="CiypFYjO7ikSyQDcbNHJ-10" style="edgeStyle=orthogonalEdgeStyle;rounded=0;orthogonalLoop=1;jettySize=auto;html=1;exitX=1;exitY=0.5;exitDx=0;exitDy=0;" edge="1" parent="1" source="CiypFYjO7ikSyQDcbNHJ-7" target="-PxYoWHsA5pN7jv7AzU3-7">
          <mxGeometry relative="1" as="geometry" />
        </mxCell>
        <mxCell id="CiypFYjO7ikSyQDcbNHJ-7" value="store-index-ingester" style="rounded=1;whiteSpace=wrap;html=1;" vertex="1" parent="1">
          <mxGeometry x="284" y="360" width="220" height="70" as="geometry" />
        </mxCell>
        <mxCell id="CiypFYjO7ikSyQDcbNHJ-17" style="edgeStyle=orthogonalEdgeStyle;rounded=0;orthogonalLoop=1;jettySize=auto;html=1;exitX=0.5;exitY=1;exitDx=0;exitDy=0;" edge="1" parent="1" source="CiypFYjO7ikSyQDcbNHJ-12" target="CiypFYjO7ikSyQDcbNHJ-13">
          <mxGeometry relative="1" as="geometry" />
        </mxCell>
        <mxCell id="CiypFYjO7ikSyQDcbNHJ-12" value="ottergate" style="rounded=1;whiteSpace=wrap;html=1;" vertex="1" parent="1">
          <mxGeometry x="520" y="850" width="120" height="60" as="geometry" />
        </mxCell>
        <mxCell id="CiypFYjO7ikSyQDcbNHJ-18" style="edgeStyle=orthogonalEdgeStyle;rounded=0;orthogonalLoop=1;jettySize=auto;html=1;exitX=0.5;exitY=1;exitDx=0;exitDy=0;entryX=0.5;entryY=0;entryDx=0;entryDy=0;" edge="1" parent="1" source="CiypFYjO7ikSyQDcbNHJ-13" target="CiypFYjO7ikSyQDcbNHJ-14">
          <mxGeometry relative="1" as="geometry" />
        </mxCell>
        <mxCell id="CiypFYjO7ikSyQDcbNHJ-13" value="css-search-service" style="rounded=1;whiteSpace=wrap;html=1;" vertex="1" parent="1">
          <mxGeometry x="520" y="960" width="120" height="60" as="geometry" />
        </mxCell>
        <mxCell id="CiypFYjO7ikSyQDcbNHJ-19" style="edgeStyle=orthogonalEdgeStyle;rounded=0;orthogonalLoop=1;jettySize=auto;html=1;exitX=0.5;exitY=1;exitDx=0;exitDy=0;entryX=0.5;entryY=0;entryDx=0;entryDy=0;" edge="1" parent="1" source="CiypFYjO7ikSyQDcbNHJ-14" target="CiypFYjO7ikSyQDcbNHJ-16">
          <mxGeometry relative="1" as="geometry" />
        </mxCell>
        <mxCell id="CiypFYjO7ikSyQDcbNHJ-14" value="store-index-service" style="rounded=1;whiteSpace=wrap;html=1;" vertex="1" parent="1">
          <mxGeometry x="520" y="1060" width="120" height="60" as="geometry" />
        </mxCell>
        <mxCell id="CiypFYjO7ikSyQDcbNHJ-16" value="ES" style="rounded=0;whiteSpace=wrap;html=1;" vertex="1" parent="1">
          <mxGeometry x="520" y="1160" width="120" height="60" as="geometry" />
        </mxCell>
      </root>
    </mxGraphModel>
  </diagram>
</mxfile>
